<svg id="svg-79642401_right-down-arrow-set" xmlns="http://www.w3.org/2000/svg" xmlns:xlink="http://www.w3.org/1999/xlink" viewBox="0 0 48 48" shape-rendering="geometricPrecision" text-rendering="geometricPrecision" project-id="6e144ca610084418b102fdd76f57f17a" export-id="0dc72bc7328144da9f3451833d178c6a" cached="false"><g id="svg-79642401_right-down-arrow-set-u-back_button" transform="matrix(-.07 0 0 0.07 147.722941-5.97546)"><path id="svg-79642401_right-down-arrow-set-s-path1" d="M2055.915,544.03v18.712L1815.263,742.357v-114.432c-141.179-13.064-308.722-66.715-333.269-226.655-3.055-20.401-3.644-40.164-2.259-60.232c1.591-27.857,7.809-55.566,18.879-81.154c18.044-42.188,71.713-104.669,131.913-141.867l-.046,18.152-.01.01c.197,1.247-.236,2.593-1.562,3.615-11.669,8.428-22.729,17.553-32.984,27.356-47.905,45.351-75.054,107.351-67.167,173.161c7.416,69.691,41.284,120.218,107.861,144.902c56.568,20.617,118.352,21.796,178.642,17.219v-119.295L2055.915,544.03Z" fill="#41af51"/><path id="svg-79642401_right-down-arrow-set-s-path2" d="M2055.915,544.034L1815.263,364.425v119.296c-60.289,4.576-122.07,3.4-178.639-17.223-66.577-24.683-100.449-75.214-107.864-144.897-7.891-65.811,19.26-127.819,67.162-173.169c10.257-9.795,21.318-18.923,32.992-27.352c3.79-2.901.263-8.539-3.985-6.597-54.717,26.881-101.799,69.367-126.313,126.684-11.073,25.591-17.294,53.304-18.881,81.16-1.384,20.061-.796,39.833,2.255,60.233c24.547,159.937,192.093,213.588,333.274,226.65v114.433l240.651-179.609Z" fill="#55e069"/></g></svg>
