<?xml version="1.0" encoding="UTF-8" standalone="no"?>
<!-- Generator: Adobe Illustrator 27.5.0, SVG Export Plug-In . SVG Version: 6.00 Build 0)  -->

<svg
   version="1.1"
   id="Capa_1"
   x="0px"
   y="0px"
   viewBox="0 0 67.809998 93.032997"
   xml:space="preserve"
   sodipodi:docname="magnifier.svg"
   width="67.809998"
   height="93.032997"
   inkscape:version="1.4 (86a8ad7, 2024-10-11)"
   xmlns:inkscape="http://www.inkscape.org/namespaces/inkscape"
   xmlns:sodipodi="http://sodipodi.sourceforge.net/DTD/sodipodi-0.dtd"
   xmlns="http://www.w3.org/2000/svg"
   xmlns:svg="http://www.w3.org/2000/svg"><defs
   id="defs8" /><sodipodi:namedview
   id="namedview8"
   pagecolor="#ffffff"
   bordercolor="#000000"
   borderopacity="0.25"
   inkscape:showpageshadow="2"
   inkscape:pageopacity="0.0"
   inkscape:pagecheckerboard="0"
   inkscape:deskcolor="#d1d1d1"
   inkscape:zoom="5.7681432"
   inkscape:cx="3.4673203"
   inkscape:cy="53.830147"
   inkscape:window-width="1920"
   inkscape:window-height="974"
   inkscape:window-x="-11"
   inkscape:window-y="-11"
   inkscape:window-maximized="1"
   inkscape:current-layer="Capa_1" />
<g
   id="g8"
   transform="matrix(0.04464126,0,0,0.045,-13.148823,-1.5717206)">
	<path
   style="fill:#5775b8"
   d="m 1707.833,1778.138 -335.124,-508.682 c -11.848,-20.522 -33.665,-30.107 -40.37,-26.236 l -26.681,-46.212 c 9.874,-7.493 12.951,-21.255 6.592,-32.269 l -33.065,-57.271 C 1485.827,940.197 1546.057,642.937 1408.92,405.409 1257.049,142.361 920.689,52.233 657.64,204.105 394.59,355.976 304.464,692.336 456.335,955.384 c 137.137,237.529 424.687,333.997 672.868,238.675 l 33.066,57.272 c 6.893,11.94 22.16,16.031 34.1,9.137 l 26.524,45.941 v 0 c -11.485,6.631 -12.014,29.118 -0.166,49.639 l 266.296,547.05 c 37.063,64.195 94.88,119.092 184.397,67.41 88.84,-51.293 73.223,-125.149 34.413,-192.37 z"
   id="path1" />
	<path
   style="fill:#cccccc"
   d="m 1305.658,1197.008 c -0.83,0.63 -1.62,1.298 -2.545,1.832 l -106.743,61.628 c -10e-4,0 -10e-4,0 -10e-4,0 l 26.524,45.941 109.446,-63.188 z"
   id="path2" />
	<polygon
   style="fill:#ababab"
   points="1222.893,1306.409 1266.469,1281.25 1239.945,1235.31 1196.37,1260.468 1196.369,1260.468 "
   id="polygon2" />
	<path
   style="fill:#ec6643"
   d="m 1707.833,1778.138 -335.124,-508.682 c -11.848,-20.522 -33.665,-30.107 -40.37,-26.236 l -65.87,38.03 -43.576,25.158 v 0 c -11.485,6.631 -12.014,29.118 -0.166,49.639 l 266.296,547.05 c 37.063,64.195 94.88,119.092 184.397,67.41 88.84,-51.292 73.223,-125.148 34.413,-192.369 z"
   id="path3" />
	<path
   style="fill:#ce402c"
   d="m 1713.804,1903.938 c -89.516,51.682 -147.334,-3.215 -184.396,-67.411 l -266.296,-547.049 c -0.925,-1.602 -1.748,-3.216 -2.522,-4.833 l -37.696,21.764 c -11.485,6.63 -12.015,29.118 -0.167,49.639 l 266.296,547.049 c 37.063,64.195 94.881,119.092 184.397,67.41 41.143,-23.754 59.854,-52.35 64.262,-82.883 -6.955,5.647 -14.85,11.102 -23.878,16.314 z"
   id="path4" />
	<path
   style="fill:#ffffff"
   d="m 1314.115,1243.833 -12.668,7.313 c -3.218,1.858 -7.333,0.755 -9.191,-2.463 l -11.994,-20.775 c -1.858,-3.218 -0.755,-7.333 2.463,-9.191 l 12.667,-7.313 c 3.218,-1.858 7.333,-0.756 9.191,2.463 l 11.994,20.774 c 1.858,3.219 0.756,7.334 -2.462,9.192 z"
   id="path5" />
	<path
   style="fill:#f18c74"
   d="m 1698.874,1792.95 c 22.82,39.527 30.524,70.128 4.488,84.67 -20.837,11.638 -50.801,4.492 -81.34,-41.382 -54.03,-81.161 -279.722,-528.958 -289.083,-545.172 -9.361,-16.214 10.181,-33.777 25.225,-11.346 15.046,22.433 317.889,473.703 340.71,513.23 z"
   id="path6" />
	<path
   style="fill:#4b55a1"
   d="m 1190.999,1205.919 -33.066,-57.272 C 904.927,1261.185 605.493,1154.445 468.356,916.917 367.34,741.953 390.213,527.67 482.995,363.7 c -119.4,169.756 -137.257,400.124 -26.66,591.684 137.137,237.529 424.687,333.997 672.868,238.675 l 33.066,57.272 c 6.893,11.94 22.161,16.031 34.101,9.137 l 106.743,-61.628 c 11.94,-6.894 16.031,-22.162 9.137,-34.101 l -87.151,50.316 c -11.94,6.894 -27.207,2.803 -34.1,-9.136 z"
   id="path7" />
	
		<circle
   transform="matrix(0.7071,-0.7071,0.7071,0.7071,-207.9532,858.7512)"
   style="fill:#61b9d9"
   cx="932.62799"
   cy="680.39697"
   id="ellipse7"
   r="470.405" />
	<path
   style="fill:#009abb"
   d="M 1189.491,1041.044 C 964.499,1170.943 676.804,1093.855 546.906,868.864 471.904,738.956 466.033,588.191 517.668,458.918 443.908,597.435 441,769.683 525.245,915.599 c 129.899,224.991 417.594,302.078 642.585,172.18 95.082,-54.895 163.623,-138.019 201.417,-232.635 -39.972,75.062 -100.684,140.247 -179.756,185.9 z"
   id="path8" />
	
		<ellipse
   transform="matrix(0.5,-0.866,0.866,0.5,56.6994,1132.2711)"
   style="fill:#91d3eb"
   cx="1008.925"
   cy="517.03198"
   rx="266.29199"
   ry="337.00601"
   id="ellipse8" />
</g>
</svg>
